<svg viewBox="0 0 100 100" fill="none" strokeLinecap="round" strokeLinejoin="round" xmlns="http://www.w3.org/2000/svg">
  <!-- Leaping chain panther SVG for Favicon -->
  
  <!-- Back leg & tail (White) -->
  <path d="M 22,58 C 16,58 12,38 22,25 C 25,20 29,22 28,30 C 26,38 22,50 26,58 M 18,66 C 12,72 8,78 14,82 C 20,86 25,78 28,72" stroke="#ffffff" stroke-width="7" />
  
  <!-- Interlocking links (iOS System Blue) -->
  <rect x="25" y="42" width="32" height="16" rx="8" transform="rotate(-30 41 50)" stroke="#007aff" stroke-width="7" />
  <rect x="45" y="32" width="32" height="16" rx="8" transform="rotate(-30 61 40)" stroke="#007aff" stroke-width="7" />
  
  <!-- Front head & legs (White) -->
  <path d="M 76,28 C 80,22 86,20 90,25 C 92,27 91,30 88,31 C 85,32 81,36 79,42 M 70,38 C 75,44 82,50 79,56 C 76,62 70,54 66,48" stroke="#ffffff" stroke-width="7" />
</svg>
